<svg width="11px" height="15px" viewBox="0 0 11 15" version="1.1" xmlns="http://www.w3.org/2000/svg" xmlns:xlink="http://www.w3.org/1999/xlink"><g id="Sportsbook" stroke="none" stroke-width="1" fill="none" fill-rule="evenodd"><g id="[ASIAN]-Sportsbook-Copy-2" transform="translate(-674.000000, -543.000000)" fill="#666B73" fill-rule="nonzero"><g id="Group-26" transform="translate(249.000000, 179.000000)"><g id="Group-24" transform="translate(0.000000, 134.000000)"><g id="Group-11" transform="translate(0.000000, 203.000000)"><g id="Group-42" transform="translate(20.000000, 9.000000)"><g id="Group-37" transform="translate(282.000000, 0.000000)"><g id="Group-21" transform="translate(87.000000, 1.000000)"><g id="Group-17"><g id="Group-13"><g id="noun_Lock_3409354" transform="translate(36.000000, 17.000000)"><path d="M9.33333333,5.78333333 L9.33333333,3.85416667 C9.33668248,2.82950879 8.93054904,1.84597309 8.2052206,1.12220955 C7.47989217,0.398446012 6.49548159,-0.0055622161 5.47083333,1.95517349e-13 C3.3129206,-0.0186365826 1.54294836,1.7048553 1.50416667,3.8625 L1.50416667,5.79583333 C1.14634115,5.8054753 0.807529956,5.95903561 0.564410385,6.2217616 C0.321290813,6.48448759 0.194416241,6.83416835 0.2125,7.19166667 L0.2125,13.7208333 C0.225998217,14.4264885 0.798413609,14.9933644 1.50416667,15 L9.33333333,15 C10.0406457,14.9910172 10.6118505,14.4198124 10.6208333,13.7125 L10.6208333,7.17916667 C10.6389135,6.82237043 10.5126022,6.47331687 10.2703815,6.21071524 C10.0281609,5.9481136 9.69042586,5.79407472 9.33333333,5.78333333 Z M2.79166667,3.85 C2.79166671,2.39795138 3.96878471,1.22083341 5.42083333,1.22083341 C6.87288196,1.22083341 8.04999996,2.39795138 8.05,3.85 L8.05,5.78333333 L2.7875,5.78333333 L2.79166667,3.85 Z M9.33333333,13.7208333 L1.50416667,13.7208333 L1.50416667,7.17916667 L9.33333333,7.17916667 L9.33333333,13.7208333 Z M4.825,10.8333333 L4.825,11.6666667 C4.79958637,11.8445381 4.85940317,12.0239941 4.98645452,12.1510455 C5.11350588,12.2780968 5.29296191,12.3379136 5.47083333,12.3125 C5.64386,12.3197217 5.81194924,12.253856 5.93400716,12.1310055 C6.05606507,12.008155 6.12084146,11.839643 6.1125,11.6666667 L6.1125,10.8333333 C6.48218169,10.5945321 6.71943055,10.1970633 6.75416667,9.75833333 C6.74300624,9.05424251 6.17492415,8.48616042 5.47083333,8.475 C5.12564497,8.45995181 4.78962413,8.58845359 4.5425602,8.82999213 C4.29549627,9.07153067 4.15942849,9.40455961 4.16666667,9.75 C4.15683194,10.2083909 4.41360128,10.6309227 4.825,10.8333333 Z" id="Shape"></path></g></g></g></g></g></g></g></g></g></g></g></svg>