<svg xmlns="http://www.w3.org/2000/svg" width="12" height="15" viewBox="0 0 12 15">
    <g fill="none">
        <path fill="#007F2F" d="M5.993 12.466l-4.868 2.432c-.368.2-.827.066-1.032-.3-.06-.115-.092-.243-.093-.373V8.782c0 .54.304.872 1.105 1.246l4.888 2.438z"/>
        <path fill="#22D353" d="M8.302 0C10.333 0 11.98.8 12 2.845v11.38c0 .128-.033.254-.093.367-.096.183-.263.32-.46.378-.2.058-.412.032-.591-.072l-4.863-2.432-4.888-2.438C.305 9.654 0 9.32 0 8.782V2.845C0 .8 1.647 0 3.671 0h4.631zm.51 5.717c.325 0 .588-.266.588-.593 0-.328-.263-.593-.589-.593H3.17c-.325 0-.59.265-.59.593 0 .327.265.593.59.593H8.81z"/>
    </g>
</svg>
