<svg xmlns="http://www.w3.org/2000/svg" width="17" height="15" viewBox="0 0 17 15">
    <g fill="none">
        <path fill="#22D353" d="M13.135 4.48c-1.642.002-2.973 1.3-2.976 2.9-.002 1.605 1.33 2.908 2.976 2.91h3.532v.255c0 2.8-1.697 4.455-4.57 4.455H4.57C1.697 15 0 13.345 0 10.545V4.448C0 1.648 1.697 0 4.57 0h7.525c2.872 0 4.569 1.649 4.569 4.448v.031h-3.53zM8.65 4.472H8.659c.351-.002.636-.281.634-.625-.001-.343-.289-.62-.64-.619H3.95c-.35.002-.634.278-.635.62-.002.343.283.622.635.624h4.7z"/>
        <path fill="#007F2F" d="M11.698 7.747c.174.793.87 1.35 1.662 1.336h2.709c.33 0 .598-.273.598-.611v-2.11c-.001-.337-.268-.611-.598-.612h-2.772c-.903.003-1.632.752-1.63 1.675 0 .108.01.216.03.322"/>
        <circle cx="13.333" cy="7.417" r="1" fill="#E8FAED"/>
    </g>
</svg>
