<svg width="40" height="40" viewBox="0 0 40 40" fill="none" xmlns="http://www.w3.org/2000/svg">
<rect width="40" height="40" rx="20" fill="#1E242C"/>
<path d="M12.5 28.3077C12.5 26.3185 13.2902 24.4109 14.6967 23.0044C16.1032 21.5978 18.0109 20.8077 20 20.8077C21.9892 20.8077 23.8968 21.5978 25.3033 23.0044C26.7098 24.4109 27.5 26.3185 27.5 28.3077M15.9615 15.0385C15.9615 16.1095 16.387 17.1367 17.1444 17.8941C17.9017 18.6515 18.9289 19.0769 20 19.0769C21.0711 19.0769 22.0982 18.6515 22.8556 17.8941C23.613 17.1367 24.0385 16.1095 24.0385 15.0385C24.0385 13.9674 23.613 12.9402 22.8556 12.1828C22.0982 11.4255 21.0711 11 20 11C18.9289 11 17.9017 11.4255 17.1444 12.1828C16.387 12.9402 15.9615 13.9674 15.9615 15.0385Z" stroke="white" stroke-linecap="round" stroke-linejoin="round"/>
</svg>
